<svg width="17" height="17" viewBox="0 0 17 17" fill="none" xmlns="http://www.w3.org/2000/svg">
<path d="M15.2126 8.27041C15.2126 7.68673 15.1642 7.26079 15.0596 6.81909H8.25854V9.45354H12.2506C12.1702 10.1082 11.7355 11.0942 10.7697 11.7567L10.7562 11.8449L12.9065 13.4775L13.0555 13.492C14.4238 12.2537 15.2126 10.4316 15.2126 8.27041Z" fill="#4285F4"/>
<path d="M8.2582 15.2119C10.214 15.2119 11.8559 14.5809 13.0552 13.4924L10.7693 11.757C10.1577 12.1751 9.33669 12.4669 8.2582 12.4669C6.34265 12.4669 4.71684 11.2286 4.13729 9.51697L4.05234 9.52404L1.81635 11.2199L1.78711 11.2996C2.97829 13.6185 5.42507 15.2119 8.2582 15.2119Z" fill="#34A853"/>
<path d="M4.13748 9.51703C3.98456 9.07532 3.89606 8.60203 3.89606 8.11302C3.89606 7.62395 3.98456 7.15071 4.12944 6.70901L4.12539 6.61494L1.86137 4.89185L1.7873 4.92638C1.29635 5.88868 1.01465 6.96931 1.01465 8.11302C1.01465 9.25672 1.29635 10.3373 1.7873 11.2996L4.13748 9.51703Z" fill="#FBBC05"/>
<path d="M8.25824 3.7588C9.61844 3.7588 10.536 4.3346 11.0591 4.81578L13.1035 2.85963C11.8479 1.71592 10.214 1.01392 8.25824 1.01392C5.42509 1.01392 2.9783 2.60721 1.78711 4.92616L4.12926 6.7088C4.71686 4.99718 6.34267 3.7588 8.25824 3.7588Z" fill="#EB4335"/>
</svg>
